<?xml version="1.0" encoding="utf-8"?>
<!-- Generator: Adobe Illustrator 19.2.1, SVG Export Plug-In . SVG Version: 6.00 Build 0)  -->
<svg version="1.1" id="Layer_1" xmlns="http://www.w3.org/2000/svg" xmlns:xlink="http://www.w3.org/1999/xlink" x="0px" y="0px"
	 viewBox="0 0 1788 595.3" style="enable-background:new 0 0 1788 595.3;" xml:space="preserve">
<style type="text/css">
	.st0{fill:#FFFFFF;}
	.st1{fill:#1BAB95;}
	.st2{fill:#17907D;}
</style>
<g>
	<path class="st0" d="M1708.9,189.3c-2.4,0-4.7-0.5-6.9-1.4c-2.1-0.9-4-2.2-5.6-3.8s-2.9-3.5-3.8-5.6s-1.4-4.4-1.4-6.9
		c0-2.4,0.5-4.7,1.4-6.9c0.9-2.1,2.2-4,3.8-5.6c1.6-1.6,3.5-2.9,5.6-3.8c2.1-0.9,4.4-1.4,6.9-1.4c2.4,0,4.7,0.5,6.9,1.4
		c2.1,0.9,4,2.2,5.6,3.8s2.9,3.5,3.8,5.6c0.9,2.2,1.4,4.4,1.4,6.9c0,2.4-0.5,4.7-1.4,6.9s-2.2,4-3.8,5.6c-1.6,1.6-3.5,2.9-5.6,3.8
		C1713.7,188.8,1711.4,189.3,1708.9,189.3z M1708.9,184.6c1.8,0,3.5-0.3,5.1-1s3-1.6,4.2-2.8s2.1-2.6,2.8-4.1c0.7-1.6,1-3.3,1-5.1
		s-0.3-3.5-1-5.1s-1.6-3-2.8-4.2c-1.2-1.2-2.6-2.1-4.2-2.8s-3.3-1-5.1-1s-3.5,0.3-5.1,1s-3,1.6-4.1,2.8c-1.2,1.2-2.1,2.6-2.8,4.2
		c-0.7,1.6-1,3.3-1,5.1s0.3,3.5,1,5.1s1.6,3,2.8,4.1c1.2,1.2,2.6,2.1,4.1,2.8C1705.5,184.2,1707.1,184.6,1708.9,184.6z
		 M1702.3,162.2h8.6c0.6,0,1.3,0.1,1.9,0.2c0.7,0.1,1.3,0.4,1.8,0.8c0.6,0.4,1,1,1.4,1.9c0.4,0.8,0.5,1.9,0.5,3.3
		c0,1.2-0.2,2.1-0.5,2.8s-0.7,1.2-1.1,1.6c-0.4,0.4-1,0.7-1.5,0.8l3.9,6.9h-5l-3.5-6.1h-2.3v6.1h-4.4v-18.3H1702.3z M1709.9,171.3
		c0.4,0,0.8,0,1-0.1c0.3-0.1,0.5-0.2,0.7-0.4s0.3-0.5,0.4-0.9s0.1-0.8,0.1-1.4c0-1.1-0.2-1.8-0.5-2.2c-0.4-0.4-1-0.6-1.9-0.6h-3.2
		v5.6L1709.9,171.3L1709.9,171.3z"/>
	<path class="st0" d="M662.6,319.3c4.7,0.7,9.7,1.2,15.2,1.7c4.7,0.5,10.1,0.8,16.1,1.1c6,0.3,12.4,0.4,19.1,0.4
		c8.9,0,16-0.6,21.3-1.7c5.3-1.2,9.3-2.8,12-5.1c2.8-2.2,4.5-5,5.3-8.3s1.2-7.1,1.2-11.5c0-3.4-0.2-6.5-0.5-9.3s-1.1-5.3-2.3-7.5
		s-2.9-4.1-5.1-5.7c-2.2-1.6-5.3-2.9-9.1-3.9L695.6,259c-6.3-1.7-11.7-3.9-16.2-6.7c-4.4-2.8-8-6.4-10.7-10.7s-4.7-9.5-5.9-15.7
		c-1.3-6.1-1.9-13.3-1.9-21.6c0-9.7,1.5-18.2,4.4-25.3s7.1-13,12.5-17.6s11.9-8,19.5-10.2s16.2-3.3,25.5-3.3c7.8,0,15,0.4,21.5,1.3
		s12.1,1.8,16.8,2.8c5.5,1.2,10.5,2.5,15,4v25.5c-4.1-0.6-8.5-1.1-13.1-1.5c-4-0.5-8.4-0.8-13.3-1.2c-4.9-0.3-10-0.5-15.3-0.5
		c-8.2,0-14.9,0.3-20.2,0.8c-5.3,0.6-9.4,1.7-12.4,3.4c-3,1.8-5.2,4.2-6.3,7.4c-1.2,3.2-1.8,7.5-1.8,12.8c0,2.9,0.2,5.6,0.5,7.9
		c0.3,2.3,1.1,4.3,2.2,6.1c1.2,1.8,2.8,3.3,5,4.6s5.1,2.5,8.8,3.6l37.5,10.8c4.8,1.4,9.1,2.8,12.8,4.3s7,3.3,9.7,5.4
		c2.8,2.1,5.1,4.5,7.1,7.3c2,2.7,3.6,6.1,4.8,9.9s2.1,8.3,2.6,13.5c0.6,5.2,0.8,11.1,0.8,17.8c0,10.5-0.9,19.5-2.7,27
		s-5.2,13.6-10.1,18.3c-5,4.7-11.8,8.2-20.5,10.5c-8.7,2.2-20,3.4-33.8,3.4c-10.7,0-19.6-0.5-26.6-1.4c-7-1-12.8-2-17.2-3.3
		c-5.1-1.4-9.1-2.9-12-4.7L662.6,319.3L662.6,319.3z"/>
	<path class="st0" d="M852.7,151.8h33.1v81.7h84.5v-81.7h33.1v196.9h-33.1v-84.5h-84.5v84.5h-33.1V151.8z"/>
	<path class="st0" d="M1081.2,151.8h32.9v131.6c0,7.8,0.7,14.3,2.1,19.3c1.4,5.1,3.7,9,6.8,11.9c3.2,2.9,7.3,4.9,12.3,6.1
		c5.1,1.2,11.3,1.7,18.6,1.7c6.6,0,12.4-0.6,17.3-1.7c4.9-1.2,9-3.2,12.3-6.1s5.8-6.9,7.4-11.9s2.4-11.5,2.4-19.3V151.8h32.8v133.6
		c0,11.5-1.3,21.5-3.9,29.9c-2.6,8.5-6.8,15.5-12.6,21c-5.8,5.6-13.3,9.7-22.4,12.5c-9.2,2.7-20.3,4.1-33.3,4.1s-24.2-1.3-33.4-4.1
		c-9.2-2.7-16.7-6.8-22.6-12.3c-5.8-5.5-10.1-12.5-12.8-20.9c-2.7-8.4-4-18.3-4-29.7L1081.2,151.8L1081.2,151.8z"/>
	<path class="st0" d="M1303.3,151.8h32.8v131.6c0,7.8,0.7,14.3,2.1,19.3c1.4,5.1,3.7,9,6.8,11.9c3.2,2.9,7.3,4.9,12.3,6.1
		c5.1,1.2,11.3,1.7,18.6,1.7c6.6,0,12.4-0.6,17.3-1.7c4.9-1.2,9-3.2,12.3-6.1s5.8-6.9,7.4-11.9c1.6-5.1,2.4-11.5,2.4-19.3V151.8
		h32.8v133.6c0,11.5-1.3,21.5-3.9,29.9c-2.6,8.5-6.8,15.5-12.6,21c-5.8,5.6-13.3,9.7-22.4,12.5c-9.2,2.7-20.3,4.1-33.3,4.1
		c-13.1,0-24.2-1.3-33.4-4.1c-9.2-2.7-16.7-6.8-22.6-12.3s-10.1-12.5-12.8-20.9c-2.7-8.4-4-18.3-4-29.7L1303.3,151.8L1303.3,151.8z"
		/>
	<path class="st0" d="M1526.2,151.8h78.1c4.2,0,8.5,0.3,12.8,1s8.5,1.9,12.4,3.7c4,1.8,7.6,4.2,11,7.3c3.4,3,6.4,6.9,9,11.7
		s4.6,10.5,6,17.2s2.1,14.6,2.1,23.6s-0.8,16.9-2.3,23.5s-3.7,12.3-6.3,17c-2.7,4.7-5.8,8.5-9.4,11.5c-3.6,2.9-7.4,5.3-11.5,7
		c-4,1.7-8.2,2.8-12.5,3.4s-8.5,0.9-12.6,0.9h-43.8v69.3h-33.1V151.8H1526.2z M1599.2,248.6c5,0,9-0.8,12.1-2.5s5.5-4,7.3-6.9
		s3-6.4,3.7-10.3s1-8.2,1-12.8c0-4.5-0.3-8.8-1-12.8s-1.9-7.6-3.7-10.7c-1.8-3.1-4.2-5.5-7.3-7.3c-3.1-1.8-7.1-2.7-12.1-2.7h-39.9
		v66.1L1599.2,248.6L1599.2,248.6z"/>
</g>
<g>
	<circle class="st0" cx="297.1" cy="296.3" r="207.7"/>
	<path class="st1" d="M296.8,58C164.9,58,57.9,164.8,57.9,296.6s106.9,238.6,238.9,238.6c131.9,0,238.9-106.8,238.9-238.6
		S428.7,58,296.8,58z M429,368.1c0,28.2-6.6,48.9-19.8,62.1c-13.3,13.2-34,19.8-62.2,19.8c-14.7,0-30.2-0.3-46.6-0.9l-39.7-1.7
		c-29.3-1.4-59.7-3.5-91-6v-58.3c78.8,4.3,157.1,6.5,157.1,6.5v24.3l64.8-56.6l-64.8-53.4l0.4,25.3h-75c-30.2,0-52.1-6.8-65.8-20.5
		s-20.5-35.6-20.5-65.8V230c0-30.2,6.8-52.1,20.5-65.8s35.6-20.5,65.8-20.5h151.4v60.4H283.1L283,181l-63.2,55l63.2,53.4l-0.1-24.8
		h64c28.2,0,48.9,6.6,62.1,19.8c13.2,13.2,19.8,33.9,19.8,62.1v21.6H429z"/>
	<g>
		<path class="st2" d="M403.5,204.1H283.1L283,181l-63.2,55l63.2,53.4l-0.1-24.8h64c28.2,0,48.9,6.6,62.1,19.8
			c13.2,13.2,19.8,33.9,19.8,62.1v21.6c0,28.2-6.6,48.9-19.8,62.1c-13.1,13.2-33.8,19.8-62,19.8c-14.7,0-30.2-0.3-46.6-0.9
			l-39.7-1.7c-29.3-1.4-59.7-3.5-91-6l90.9,91.1c11.8,1.8,23.9,2.7,36.2,2.7c131.9,0,238.9-106.8,238.9-238.6
			c0-8.3-0.4-16.5-1.3-24.6L403.5,144.2V204.1z"/>
		<path class="st2" d="M186.3,308.7c-0.1-0.1-0.2-0.3-0.4-0.4v0.4l78.8,78.8c36.5,1.4,62,2.1,62,2.1v24.3l64.8-56.6l-64.8-53.4
			l0.4,25.3h-75C221.9,329.2,200,322.4,186.3,308.7z"/>
	</g>
</g>
<path class="st0" d="M677.1,441.9c-1.7,0-3.4-0.1-4.8-0.4c-1.5-0.2-2.9-0.7-4.1-1.3c-1.2-0.6-2.3-1.4-3.3-2.5c-1-1-1.8-2.3-2.4-3.9
	c-0.7-1.6-1.2-3.4-1.5-5.5s-0.5-4.6-0.5-7.5c0-4.3,0.4-7.7,1.1-10.5c0.8-2.7,1.9-4.9,3.3-6.5c1.4-1.6,3.2-2.7,5.2-3.3
	c2.1-0.6,4.4-0.9,7-0.9c1.7,0,3.3,0.1,4.8,0.4s2.9,0.7,4.1,1.3c1.2,0.6,2.3,1.5,3.3,2.5c0.9,1,1.7,2.4,2.4,3.9
	c0.7,1.6,1.1,3.4,1.5,5.6c0.3,2.1,0.5,4.6,0.5,7.4s-0.2,5.3-0.5,7.4s-0.8,4-1.5,5.5c-0.7,1.6-1.5,2.9-2.4,3.9s-2,1.8-3.3,2.5
	c-1.2,0.6-2.6,1-4.1,1.3C680.4,441.8,678.8,441.9,677.1,441.9z M677.1,435.6c1.9,0,3.4-0.2,4.6-0.7c1.2-0.4,2.2-1.2,2.9-2.3
	c0.7-1.1,1.2-2.6,1.5-4.5s0.4-4.3,0.4-7.2c0-2.9-0.1-5.4-0.4-7.3c-0.3-1.9-0.8-3.4-1.5-4.5s-1.7-1.9-2.9-2.4
	c-1.2-0.4-2.8-0.7-4.6-0.7c-1.9,0-3.4,0.2-4.6,0.7c-1.2,0.4-2.2,1.2-2.9,2.4c-0.7,1.1-1.2,2.6-1.5,4.5s-0.4,4.3-0.4,7.3
	c0,2.9,0.1,5.3,0.4,7.2c0.3,1.9,0.8,3.4,1.5,4.5s1.7,1.9,2.9,2.3C673.7,435.4,675.2,435.6,677.1,435.6z M713.7,400.6h16
	c0.9,0,1.7,0.1,2.6,0.2c0.9,0.1,1.7,0.4,2.6,0.8c0.8,0.4,1.6,0.9,2.3,1.5s1.3,1.4,1.8,2.4s0.9,2.1,1.2,3.5s0.4,3,0.4,4.8
	c0,1.9-0.2,3.5-0.5,4.8c-0.3,1.4-0.8,2.5-1.3,3.5s-1.2,1.7-1.9,2.4c-0.7,0.6-1.5,1.1-2.4,1.4c-0.8,0.3-1.7,0.6-2.6,0.7
	c-0.9,0.1-1.7,0.2-2.6,0.2h-9V441h-6.8v-40.4H713.7z M728.6,420.5c1,0,1.8-0.2,2.5-0.5c0.6-0.3,1.1-0.8,1.5-1.4s0.6-1.3,0.8-2.1
	c0.1-0.8,0.2-1.7,0.2-2.6s-0.1-1.8-0.2-2.6c-0.1-0.8-0.4-1.6-0.8-2.2c-0.4-0.6-0.9-1.1-1.5-1.5s-1.5-0.6-2.5-0.6h-8.2v13.6
	L728.6,420.5L728.6,420.5z M759.7,400.6H784v6.3h-17.5v10.6h14.7v6.2h-14.7v11h18v6.3h-24.8V400.6z M803.9,400.6h11.3l14.7,34.1h0.1
	c0-0.7,0-1.4-0.1-2.1c0-0.6,0-1.3,0-2s0-1.4,0-2v-28.1h6.7V441h-11l-12.5-28.5c-0.3-0.8-0.7-1.5-1-2.2s-0.6-1.3-0.8-1.8
	c-0.3-0.6-0.5-1.2-0.7-1.7h-0.1V441h-6.7L803.9,400.6L803.9,400.6z M883,435c1,0.1,2,0.2,3.1,0.3c1,0.1,2.1,0.2,3.3,0.2
	c1.2,0.1,2.5,0.1,3.9,0.1c1.8,0,3.3-0.1,4.4-0.4c1.1-0.2,1.9-0.6,2.5-1c0.6-0.5,0.9-1,1.1-1.7c0.2-0.7,0.2-1.5,0.2-2.4
	c0-0.7,0-1.3-0.1-1.9s-0.2-1.1-0.5-1.5c-0.2-0.5-0.6-0.8-1-1.2c-0.5-0.3-1.1-0.6-1.9-0.8l-8.2-2.2c-1.3-0.3-2.4-0.8-3.3-1.4
	c-0.9-0.6-1.6-1.3-2.2-2.2c-0.6-0.9-1-2-1.2-3.2c-0.3-1.3-0.4-2.7-0.4-4.4c0-2,0.3-3.7,0.9-5.2c0.6-1.5,1.5-2.7,2.6-3.6
	s2.4-1.6,4-2.1s3.3-0.7,5.2-0.7c1.6,0,3.1,0.1,4.4,0.3c1.3,0.2,2.5,0.4,3.4,0.6c1.1,0.2,2.2,0.5,3.1,0.8v5.2
	c-0.8-0.1-1.7-0.2-2.7-0.3c-0.8-0.1-1.7-0.2-2.7-0.2c-1-0.1-2.1-0.1-3.1-0.1c-1.7,0-3.1,0.1-4.1,0.2c-1.1,0.1-1.9,0.3-2.6,0.7
	c-0.6,0.4-1.1,0.9-1.3,1.5c-0.2,0.7-0.4,1.5-0.4,2.6c0,0.6,0,1.1,0.1,1.6s0.2,0.9,0.5,1.2c0.2,0.4,0.6,0.7,1,0.9
	c0.4,0.3,1,0.5,1.8,0.7l7.7,2.2c1,0.3,1.9,0.6,2.6,0.9c0.8,0.3,1.4,0.7,2,1.1s1.1,0.9,1.5,1.5s0.7,1.2,1,2c0.2,0.8,0.4,1.7,0.5,2.8
	c0.1,1.1,0.2,2.3,0.2,3.7c0,2.2-0.2,4-0.6,5.5c-0.4,1.5-1.1,2.8-2.1,3.8s-2.4,1.7-4.2,2.2s-4.1,0.7-6.9,0.7c-2.2,0-4-0.1-5.5-0.3
	c-1.4-0.2-2.6-0.4-3.5-0.7c-1-0.3-1.9-0.6-2.5-1V435z M942.5,441.9c-1.7,0-3.4-0.1-4.8-0.4c-1.5-0.2-2.9-0.7-4.1-1.3
	c-1.2-0.6-2.3-1.4-3.3-2.5c-1-1-1.8-2.3-2.4-3.9c-0.7-1.6-1.2-3.4-1.5-5.5s-0.5-4.6-0.5-7.5c0-4.3,0.4-7.7,1.1-10.5
	c0.8-2.7,1.9-4.9,3.3-6.5c1.4-1.6,3.2-2.7,5.2-3.3c2.1-0.6,4.4-0.9,7-0.9c1.7,0,3.3,0.1,4.8,0.4s2.9,0.7,4.1,1.3
	c1.2,0.6,2.3,1.5,3.3,2.5c0.9,1,1.7,2.4,2.4,3.9c0.7,1.6,1.1,3.4,1.5,5.6c0.3,2.1,0.5,4.6,0.5,7.4s-0.2,5.3-0.5,7.4s-0.8,4-1.5,5.5
	c-0.7,1.6-1.5,2.9-2.4,3.9s-2,1.8-3.3,2.5c-1.2,0.6-2.6,1-4.1,1.3C945.8,441.8,944.2,441.9,942.5,441.9z M942.5,435.6
	c1.9,0,3.4-0.2,4.6-0.7c1.2-0.4,2.2-1.2,2.9-2.3c0.7-1.1,1.2-2.6,1.5-4.5s0.4-4.3,0.4-7.2c0-2.9-0.1-5.4-0.4-7.3
	c-0.3-1.9-0.8-3.4-1.5-4.5s-1.7-1.9-2.9-2.4c-1.2-0.4-2.8-0.7-4.6-0.7c-1.9,0-3.4,0.2-4.6,0.7c-1.2,0.4-2.2,1.2-2.9,2.4
	c-0.7,1.1-1.2,2.6-1.5,4.5s-0.4,4.3-0.4,7.3c0,2.9,0.1,5.3,0.4,7.2c0.3,1.9,0.8,3.4,1.5,4.5s1.7,1.9,2.9,2.3
	C939.1,435.4,940.7,435.6,942.5,435.6z M978.9,400.6h6.7v27c0,1.6,0.1,2.9,0.4,4c0.3,1,0.8,1.9,1.4,2.5c0.7,0.6,1.5,1,2.5,1.2
	s2.3,0.4,3.8,0.4c1.4,0,2.5-0.1,3.6-0.4c1-0.2,1.9-0.7,2.5-1.2c0.7-0.6,1.2-1.4,1.5-2.5c0.3-1,0.5-2.4,0.5-4v-27h6.7V428
	c0,2.4-0.3,4.4-0.8,6.2c-0.5,1.7-1.4,3.2-2.6,4.3c-1.2,1.1-2.7,2-4.6,2.6c-1.9,0.6-4.2,0.9-6.8,0.9c-2.7,0-5-0.3-6.9-0.8
	c-1.9-0.6-3.4-1.4-4.6-2.5c-1.2-1.1-2.1-2.6-2.6-4.3c-0.5-1.7-0.8-3.8-0.8-6.1L978.9,400.6L978.9,400.6z M1030.5,400.6h15
	c1.1,0,2.1,0.1,3.2,0.2c1,0.1,2,0.4,2.9,0.8s1.8,0.8,2.5,1.5c0.8,0.6,1.4,1.4,2,2.4s1,2.1,1.3,3.5c0.3,1.3,0.5,2.9,0.5,4.7
	c0,1.2-0.1,2.3-0.3,3.2c-0.2,1-0.5,1.8-0.8,2.5s-0.7,1.4-1.1,1.9s-0.9,1-1.3,1.4c-1,0.9-2.2,1.5-3.5,1.9v0.1l8.5,16.4h-7.8
	l-7.6-14.9h-6.7V441h-6.8L1030.5,400.6L1030.5,400.6z M1045.5,419.8c3.6,0,5.3-2.2,5.3-6.6c0-1.2-0.1-2.1-0.4-2.9s-0.6-1.4-1.1-1.9
	s-1.1-0.8-1.7-1.1c-0.7-0.2-1.4-0.3-2.3-0.3h-8v12.9h8.2V419.8z M1092.4,441.7c-1.3,0-2.6-0.1-3.9-0.4c-1.3-0.2-2.5-0.7-3.7-1.3
	c-1.2-0.6-2.2-1.4-3.2-2.5c-1-1-1.9-2.3-2.6-3.9s-1.3-3.5-1.7-5.6c-0.4-2.2-0.6-4.7-0.6-7.6c0-2.8,0.2-5.2,0.7-7.4
	c0.5-2.1,1.1-3.9,1.9-5.5c0.8-1.5,1.7-2.8,2.8-3.8c1.1-1,2.2-1.8,3.3-2.4c1.2-0.6,2.4-1,3.6-1.2s2.4-0.4,3.5-0.4
	c1.9,0,3.5,0.1,4.9,0.3c1.4,0.2,2.6,0.4,3.5,0.6c1.1,0.3,2,0.6,2.8,0.9v4.9c-0.8-0.1-1.6-0.1-2.5-0.2c-0.8,0-1.6-0.1-2.6-0.1
	s-2-0.1-3-0.1s-1.9,0-2.9,0.1s-1.9,0.3-2.7,0.6c-0.9,0.3-1.7,0.8-2.5,1.4s-1.4,1.4-2,2.5c-0.6,1-1,2.4-1.3,3.9
	c-0.3,1.6-0.5,3.5-0.5,5.7c0,2.3,0.2,4.3,0.5,6s0.8,3,1.3,4.2c0.6,1.1,1.2,2,2,2.6s1.6,1.1,2.5,1.5c0.9,0.3,1.8,0.5,2.8,0.6
	s1.9,0.1,2.9,0.1c1.2,0,2.4,0,3.4-0.1c1,0,1.9-0.1,2.6-0.1c0.8-0.1,1.6-0.1,2.3-0.2v4.9c-0.8,0.3-1.8,0.6-2.9,0.9
	c-1,0.2-2.2,0.4-3.6,0.6C1096,441.6,1094.3,441.7,1092.4,441.7z M1123.6,400.6h24.3v6.3h-17.5v10.6h14.7v6.2h-14.7v11h18v6.3h-24.8
	V400.6z M1193.8,400.6h24.3v6.3h-17.5v10.6h14.7v6.2h-14.7v11h18v6.3h-24.8V400.6z M1234.6,421.1h19.1v6.4h-19.1V421.1z M1286,441.7
	c-1.3,0-2.6-0.1-3.9-0.4c-1.3-0.2-2.5-0.7-3.7-1.3c-1.2-0.6-2.2-1.4-3.2-2.5c-1-1-1.9-2.3-2.6-3.9s-1.3-3.5-1.7-5.6
	c-0.4-2.2-0.6-4.7-0.6-7.6c0-2.8,0.2-5.2,0.7-7.4c0.5-2.1,1.1-3.9,1.9-5.5s1.7-2.8,2.8-3.8c1.1-1,2.2-1.8,3.3-2.4
	c1.2-0.6,2.4-1,3.6-1.2s2.4-0.4,3.5-0.4c1.9,0,3.5,0.1,4.9,0.3c1.4,0.2,2.6,0.4,3.5,0.6c1.1,0.3,2,0.6,2.8,0.9v4.9
	c-0.8-0.1-1.6-0.1-2.5-0.2c-0.8,0-1.6-0.1-2.6-0.1s-2-0.1-3-0.1s-1.9,0-2.9,0.1s-1.9,0.3-2.7,0.6c-0.9,0.3-1.7,0.8-2.5,1.4
	s-1.4,1.4-2,2.5c-0.6,1-1,2.4-1.3,3.9c-0.3,1.6-0.5,3.5-0.5,5.7c0,2.3,0.2,4.3,0.5,6s0.8,3,1.3,4.2c0.6,1.1,1.2,2,2,2.6
	s1.6,1.1,2.5,1.5c0.9,0.3,1.8,0.5,2.8,0.6s1.9,0.1,2.9,0.1c1.2,0,2.4,0,3.4-0.1c1,0,1.9-0.1,2.6-0.1c0.9-0.1,1.6-0.1,2.3-0.2v4.9
	c-0.8,0.3-1.8,0.6-2.9,0.9c-1,0.2-2.2,0.4-3.6,0.6C1289.6,441.6,1287.9,441.7,1286,441.7z M1331.9,441.9c-1.7,0-3.4-0.1-4.8-0.4
	c-1.5-0.2-2.9-0.7-4.1-1.3c-1.2-0.6-2.3-1.4-3.3-2.5c-1-1-1.8-2.3-2.4-3.9c-0.7-1.6-1.2-3.4-1.5-5.5s-0.5-4.6-0.5-7.5
	c0-4.3,0.4-7.7,1.1-10.5c0.8-2.7,1.9-4.9,3.3-6.5s3.2-2.7,5.2-3.3c2.1-0.6,4.4-0.9,7-0.9c1.7,0,3.3,0.1,4.8,0.4s2.9,0.7,4.1,1.3
	c1.2,0.6,2.3,1.5,3.3,2.5c0.9,1,1.7,2.4,2.4,3.9c0.7,1.6,1.1,3.4,1.5,5.6c0.3,2.1,0.5,4.6,0.5,7.4s-0.2,5.3-0.5,7.4s-0.8,4-1.5,5.5
	c-0.7,1.6-1.5,2.9-2.4,3.9s-2,1.8-3.3,2.5c-1.2,0.6-2.6,1-4.1,1.3C1335.2,441.8,1333.6,441.9,1331.9,441.9z M1331.9,435.6
	c1.9,0,3.4-0.2,4.6-0.7c1.2-0.4,2.2-1.2,2.9-2.3c0.7-1.1,1.2-2.6,1.5-4.5s0.4-4.3,0.4-7.2c0-2.9-0.1-5.4-0.4-7.3s-0.8-3.4-1.5-4.5
	s-1.7-1.9-2.9-2.4c-1.2-0.4-2.8-0.7-4.6-0.7c-1.9,0-3.4,0.2-4.6,0.7c-1.2,0.4-2.2,1.2-2.9,2.4c-0.7,1.1-1.2,2.6-1.5,4.5
	s-0.4,4.3-0.4,7.3c0,2.9,0.1,5.3,0.4,7.2c0.3,1.9,0.8,3.4,1.5,4.5s1.7,1.9,2.9,2.3C1328.5,435.4,1330,435.6,1331.9,435.6z
	 M1368.4,400.6h11.8l7.5,24.4h0.2l7.7-24.4h11.6V441h-6.8v-34.1h-0.2l-0.8,2.6c-0.2,0.7-0.4,1.5-0.7,2.3c-0.2,0.8-0.5,1.5-0.7,2
	l-5.2,16.3h-10.2l-5.3-16.4c-0.2-0.6-0.4-1.2-0.7-2c-0.2-0.8-0.5-1.5-0.7-2.2c-0.2-0.8-0.5-1.7-0.8-2.5h-0.2v34h-6.8v-40.4H1368.4z
	 M1429.2,400.6h11.8l7.5,24.4h0.2l7.7-24.4h11.6V441h-6.8v-34.1h-0.2l-0.8,2.6c-0.2,0.7-0.4,1.5-0.7,2.3c-0.2,0.8-0.5,1.5-0.7,2
	l-5.2,16.3h-10.2l-5.3-16.4c-0.2-0.6-0.4-1.2-0.7-2c-0.2-0.8-0.5-1.5-0.7-2.2c-0.2-0.8-0.5-1.7-0.8-2.5h-0.2v34h-6.8v-40.4H1429.2z
	 M1489.9,400.6h24.3v6.3h-17.5v10.6h14.7v6.2h-14.7v11h18v6.3h-24.8V400.6z M1534.1,400.6h15c1.1,0,2.1,0.1,3.2,0.2
	c1,0.1,2,0.4,2.9,0.8s1.8,0.8,2.5,1.5c0.8,0.6,1.4,1.4,2,2.4s1,2.1,1.3,3.5c0.3,1.3,0.5,2.9,0.5,4.7c0,1.2-0.1,2.3-0.3,3.2
	c-0.2,1-0.5,1.8-0.8,2.5s-0.7,1.4-1.1,1.9s-0.9,1-1.3,1.4c-1,0.9-2.2,1.5-3.5,1.9v0.1l8.5,16.4h-7.8l-7.6-14.9h-6.7V441h-6.8
	L1534.1,400.6L1534.1,400.6z M1549.1,419.8c3.6,0,5.3-2.2,5.3-6.6c0-1.2-0.1-2.1-0.4-2.9s-0.6-1.4-1.1-1.9s-1.1-0.8-1.7-1.1
	c-0.7-0.2-1.4-0.3-2.3-0.3h-8v12.9h8.2V419.8z M1596,441.7c-1.3,0-2.6-0.1-3.9-0.4c-1.3-0.2-2.5-0.7-3.7-1.3
	c-1.2-0.6-2.2-1.4-3.2-2.5c-1-1-1.9-2.3-2.6-3.9s-1.3-3.5-1.7-5.6c-0.4-2.2-0.6-4.7-0.6-7.6c0-2.8,0.2-5.2,0.7-7.4
	c0.5-2.1,1.1-3.9,1.9-5.5c0.8-1.5,1.7-2.8,2.8-3.8c1.1-1,2.2-1.8,3.3-2.4c1.2-0.6,2.4-1,3.6-1.2s2.4-0.4,3.5-0.4
	c1.9,0,3.5,0.1,4.9,0.3c1.4,0.2,2.6,0.4,3.5,0.6c1.1,0.3,2,0.6,2.8,0.9v4.9c-0.8-0.1-1.6-0.1-2.5-0.2c-0.8,0-1.6-0.1-2.6-0.1
	s-2-0.1-3-0.1s-1.9,0-2.9,0.1s-1.9,0.3-2.7,0.6c-0.9,0.3-1.7,0.8-2.5,1.4s-1.4,1.4-2,2.5c-0.6,1-1,2.4-1.3,3.9
	c-0.3,1.6-0.5,3.5-0.5,5.7c0,2.3,0.2,4.3,0.5,6s0.8,3,1.3,4.2c0.6,1.1,1.2,2,2,2.6s1.6,1.1,2.5,1.5c0.9,0.3,1.8,0.5,2.8,0.6
	s1.9,0.1,2.9,0.1c1.2,0,2.4,0,3.4-0.1c1,0,1.9-0.1,2.6-0.1c0.9-0.1,1.6-0.1,2.3-0.2v4.9c-0.8,0.3-1.8,0.6-2.9,0.9
	c-1,0.2-2.2,0.4-3.6,0.6C1599.6,441.6,1597.9,441.7,1596,441.7z M1627.2,400.6h24.3v6.3H1634v10.6h14.7v6.2H1634v11h18v6.3h-24.8
	V400.6z"/>
</svg>
